<svg width="1160" height="297" viewBox="0 0 1160 297" fill="none" xmlns="http://www.w3.org/2000/svg">
<path d="M563.782 44.0348C564.334 44.0591 564.801 43.6315 564.825 43.0797L565.221 34.0884C565.245 33.5367 564.817 33.0697 564.265 33.0454C563.714 33.0212 563.247 33.4488 563.223 34.0005L562.871 41.9928L554.879 41.6413C554.327 41.617 553.86 42.0446 553.836 42.5964C553.811 43.1481 554.239 43.6151 554.791 43.6394L563.782 44.0348ZM564.564 42.3604C544.503 20.4537 516.561 7.41345 486.885 6.10828L486.798 8.10635C515.943 9.38821 543.386 22.1956 563.089 43.7111L564.564 42.3604ZM486.885 6.10828C457.21 4.80311 428.231 15.34 406.325 35.4009L407.675 36.8758C429.191 17.1732 457.652 6.82448 486.798 8.10635L486.885 6.10828Z" fill="#308ECC" fill-opacity="0.25"/>
<path d="M186.782 44.0348C187.334 44.0591 187.801 43.6315 187.825 43.0797L188.221 34.0884C188.245 33.5367 187.817 33.0697 187.265 33.0454C186.714 33.0212 186.247 33.4488 186.223 34.0005L185.871 41.9928L177.879 41.6413C177.327 41.617 176.86 42.0446 176.836 42.5964C176.811 43.1481 177.239 43.6151 177.791 43.6394L186.782 44.0348ZM24.6665 36.1383C24.6665 39.0839 27.0543 41.4717 29.9998 41.4717C32.9453 41.4717 35.3331 39.0839 35.3331 36.1383C35.3331 33.1928 32.9453 30.805 29.9998 30.805C27.0543 30.805 24.6665 33.1928 24.6665 36.1383ZM187.564 42.3604C167.503 20.4537 139.561 7.41345 109.885 6.10828L109.798 8.10635C138.943 9.38821 166.386 22.1956 186.089 43.7111L187.564 42.3604ZM109.885 6.10828C80.2097 4.80311 51.2311 15.34 29.3244 35.4009L30.6752 36.8758C52.1906 17.1732 80.6518 6.82448 109.798 8.10635L109.885 6.10828Z" fill="#308ECC" fill-opacity="0.25"/>
<path d="M943.782 44.0348C944.334 44.0591 944.801 43.6315 944.825 43.0797L945.221 34.0884C945.245 33.5367 944.817 33.0697 944.265 33.0454C943.714 33.0212 943.247 33.4488 943.223 34.0005L942.871 41.9928L934.879 41.6413C934.327 41.617 933.86 42.0446 933.836 42.5964C933.811 43.1481 934.239 43.6151 934.791 43.6394L943.782 44.0348ZM944.564 42.3604C924.503 20.4537 896.561 7.41345 866.885 6.10828L866.798 8.10635C895.943 9.38821 923.386 22.1956 943.089 43.7111L944.564 42.3604ZM866.885 6.10828C837.21 4.80311 808.231 15.34 786.325 35.4009L787.675 36.8758C809.191 17.1732 837.652 6.82448 866.798 8.10635L866.885 6.10828Z" fill="#308ECC" fill-opacity="0.25"/>
<path d="M375.178 246.421C375.73 246.409 376.188 246.846 376.2 247.398L376.399 256.396C376.412 256.948 375.974 257.406 375.422 257.418C374.87 257.43 374.412 256.993 374.4 256.441L374.223 248.443L366.225 248.62C365.673 248.632 365.215 248.194 365.203 247.642C365.191 247.09 365.628 246.632 366.18 246.62L375.178 246.421ZM375.923 248.112C355.389 269.576 327.17 282.004 297.473 282.661L297.428 280.662C326.595 280.016 354.311 267.81 374.478 246.729L375.923 248.112ZM297.473 282.661C267.776 283.319 239.034 272.153 217.57 251.619L218.952 250.174C240.033 270.341 268.262 281.308 297.428 280.662L297.473 282.661Z" fill="#308ECC" fill-opacity="0.25"/>
<path d="M753.553 246.421C754.105 246.409 754.562 246.846 754.574 247.398L754.774 256.396C754.786 256.948 754.348 257.406 753.796 257.418C753.244 257.43 752.786 256.993 752.774 256.441L752.597 248.443L744.599 248.62C744.047 248.632 743.589 248.194 743.577 247.642C743.565 247.09 744.003 246.632 744.555 246.62L753.553 246.421ZM754.297 248.112C733.763 269.576 705.544 282.004 675.847 282.661L675.803 280.662C704.969 280.016 732.685 267.81 752.852 246.729L754.297 248.112ZM675.847 282.661C646.15 283.319 617.408 272.153 595.944 251.619L597.327 250.174C618.407 270.341 646.636 281.308 675.803 280.662L675.847 282.661Z" fill="#308ECC" fill-opacity="0.25"/>
<path d="M1131.24 247.304C1131.31 244.359 1133.75 242.024 1136.69 242.089C1139.64 242.153 1141.97 244.592 1141.91 247.537C1141.84 250.482 1139.4 252.817 1136.46 252.753C1133.51 252.688 1131.18 250.249 1131.24 247.304ZM1137.3 248.112C1116.76 269.576 1088.54 282.004 1058.85 282.661L1058.8 280.662C1087.97 280.016 1115.68 267.81 1135.85 246.729L1137.3 248.112ZM1058.85 282.661C1029.15 283.319 1000.41 272.153 978.944 251.619L980.327 250.174C1001.41 270.341 1029.64 281.308 1058.8 280.662L1058.85 282.661Z" fill="#308ECC" fill-opacity="0.25"/>
<path d="M105 249C162.99 249 210 201.99 210 144C210 86.0101 162.99 39 105 39C47.0101 39 0 86.0101 0 144C0 201.99 47.0101 249 105 249Z" fill="#6696C4" fill-opacity="0.4"/>
<mask id="mask0_177_2" style="mask-type:luminance" maskUnits="userSpaceOnUse" x="73" y="112" width="64" height="64">
<path d="M73 112H137V176H73V112Z" fill="white"/>
</mask>
<g mask="url(#mask0_177_2)">
<path d="M74.3335 140C74.3335 147.073 77.143 153.855 82.1439 158.856C87.1449 163.857 93.9277 166.667 101 166.667C108.072 166.667 114.855 163.857 119.856 158.856C124.857 153.855 127.667 147.073 127.667 140C127.667 132.928 124.857 126.145 119.856 121.144C114.855 116.143 108.072 113.333 101 113.333C93.9277 113.333 87.1449 116.143 82.1439 121.144C77.143 126.145 74.3335 132.928 74.3335 140Z" stroke="white" stroke-width="2" stroke-linecap="round" stroke-linejoin="round"/>
<path d="M135.667 174.666L119.856 158.855" stroke="white" stroke-width="2" stroke-linecap="round" stroke-linejoin="round"/>
</g>
<path d="M295 249C352.99 249 400 201.99 400 144C400 86.0101 352.99 39 295 39C237.01 39 190 86.0101 190 144C190 201.99 237.01 249 295 249Z" fill="#6696C4" fill-opacity="0.5"/>
<path d="M291 145.334L305.667 130.667" stroke="white" stroke-width="2" stroke-linecap="round" stroke-linejoin="round"/>
<path d="M307.24 119.76C306.741 120.256 306.345 120.846 306.075 121.496C305.805 122.146 305.666 122.843 305.667 123.547V130.667H312.787C313.491 130.667 314.187 130.529 314.837 130.259C315.487 129.989 316.077 129.593 316.573 129.093L323 122.667H313.667V113.333L307.24 119.76Z" stroke="white" stroke-width="2" stroke-linecap="round" stroke-linejoin="round"/>
<path d="M303.693 141.333C304.126 142.659 304.342 144.046 304.333 145.44C304.352 148.523 303.303 151.516 301.363 153.912C299.423 156.308 296.714 157.958 293.695 158.581C290.676 159.203 287.534 158.761 284.805 157.329C282.075 155.896 279.926 153.563 278.724 150.724C277.521 147.886 277.339 144.719 278.208 141.761C279.078 138.804 280.945 136.239 283.493 134.504C286.04 132.768 289.11 131.968 292.181 132.241C295.251 132.514 298.132 133.842 300.333 136" stroke="white" stroke-width="2" stroke-linecap="round" stroke-linejoin="round"/>
<path d="M313.667 137.334C315.472 142.506 315.454 148.14 313.615 153.301C311.776 158.461 308.227 162.837 303.557 165.702C298.888 168.566 293.378 169.747 287.945 169.048C282.511 168.349 277.481 165.812 273.688 161.858C269.896 157.905 267.57 152.773 267.097 147.315C266.625 141.857 268.033 136.402 271.09 131.855C274.146 127.308 278.666 123.944 283.898 122.321C289.131 120.699 294.761 120.915 299.853 122.934" stroke="white" stroke-width="2" stroke-linecap="round" stroke-linejoin="round"/>
<path d="M276.04 164.107L267 174.667" stroke="white" stroke-width="2" stroke-linecap="round" stroke-linejoin="round"/>
<path d="M305.96 164.107L315 174.667" stroke="white" stroke-width="2" stroke-linecap="round" stroke-linejoin="round"/>
<path d="M485 249C542.99 249 590 201.99 590 144C590 86.0101 542.99 39 485 39C427.01 39 380 86.0101 380 144C380 201.99 427.01 249 485 249Z" fill="#6696C4" fill-opacity="0.6"/>
<mask id="mask1_177_2" style="mask-type:luminance" maskUnits="userSpaceOnUse" x="453" y="112" width="64" height="64">
<path d="M453 112H517V176H453V112Z" fill="white"/>
</mask>
<g mask="url(#mask1_177_2)">
<path d="M457 142.667V126.667C457 125.252 457.562 123.896 458.562 122.896C459.562 121.895 460.919 121.333 462.333 121.333C463.748 121.333 465.104 121.895 466.105 122.896C467.105 123.896 467.667 125.252 467.667 126.667V142.667" stroke="white" stroke-width="2" stroke-linecap="round" stroke-linejoin="round"/>
<path d="M467.667 154.987V161.333C467.603 163.085 467.196 164.807 466.467 166.4L462.92 173.467C462.6 174.133 462.067 174.133 461.747 173.467L458.333 166.4C457.597 164.781 457.189 163.031 457.133 161.253V154.987" stroke="white" stroke-width="2" stroke-linecap="round" stroke-linejoin="round"/>
<path d="M467.667 129.253H457" stroke="white" stroke-width="2" stroke-linecap="round" stroke-linejoin="round"/>
<path d="M467.293 164H457.373" stroke="white" stroke-width="2" stroke-linecap="round" stroke-linejoin="round"/>
<path d="M493.24 129.333L512.653 162.907C513.021 163.505 513.137 164.225 512.978 164.909C512.818 165.593 512.395 166.186 511.8 166.56L510.2 167.52C509.598 167.885 508.876 167.998 508.192 167.833C507.507 167.668 506.916 167.239 506.546 166.64L485.213 129.307" stroke="white" stroke-width="2" stroke-linecap="round" stroke-linejoin="round"/>
<path d="M511.107 166.987L515.667 174.667" stroke="white" stroke-width="2" stroke-linecap="round" stroke-linejoin="round"/>
<path d="M477.24 121.333C477.24 119.212 478.083 117.177 479.583 115.677C481.083 114.176 483.118 113.333 485.24 113.333C487.362 113.333 489.397 114.176 490.897 115.677C492.397 117.177 493.24 119.212 493.24 121.333V129.333H477.24V121.333Z" stroke="white" stroke-width="2" stroke-linecap="round" stroke-linejoin="round"/>
<path d="M477.24 129.333L472.253 145.493C471.952 146.209 471.453 146.824 470.816 147.268C470.179 147.711 469.429 147.965 468.653 148H455.667C455.313 148 454.974 148.141 454.724 148.391C454.474 148.641 454.333 148.98 454.333 149.333V153.653C454.333 154.007 454.474 154.346 454.724 154.596C454.974 154.846 455.313 154.987 455.667 154.987H473.907C474.678 154.951 475.425 154.7 476.061 154.262C476.698 153.823 477.198 153.215 477.507 152.507L485.24 129.333" stroke="white" stroke-width="2" stroke-linecap="round" stroke-linejoin="round"/>
</g>
<path d="M675 249C732.99 249 780 201.99 780 144C780 86.0101 732.99 39 675 39C617.01 39 570 86.0101 570 144C570 201.99 617.01 249 675 249Z" fill="#6696C4" fill-opacity="0.7"/>
<path d="M685 144L693 152L685 160" stroke="white" stroke-width="2" stroke-linecap="round" stroke-linejoin="round"/>
<path d="M665 144L657 152L665 160" stroke="white" stroke-width="2" stroke-linecap="round" stroke-linejoin="round"/>
<path d="M679 144L671 160" stroke="white" stroke-width="2" stroke-linecap="round" stroke-linejoin="round"/>
<path d="M700.333 120H649.667C646.721 120 644.333 122.388 644.333 125.333V162.667C644.333 165.612 646.721 168 649.667 168H700.333C703.279 168 705.667 165.612 705.667 162.667V125.333C705.667 122.388 703.279 120 700.333 120Z" stroke="white" stroke-width="2" stroke-linecap="round" stroke-linejoin="round"/>
<path d="M644.333 133.333H705.667" stroke="white" stroke-width="2" stroke-linecap="round" stroke-linejoin="round"/>
<path d="M653.667 127.333C653.298 127.333 653 127.035 653 126.667C653 126.298 653.298 126 653.667 126" stroke="white" stroke-width="2"/>
<path d="M653.667 127.333C654.035 127.333 654.333 127.035 654.333 126.667C654.333 126.298 654.035 126 653.667 126" stroke="white" stroke-width="2"/>
<path d="M661.667 127.333C661.298 127.333 661 127.035 661 126.667C661 126.298 661.298 126 661.667 126" stroke="white" stroke-width="2"/>
<path d="M661.667 127.333C662.035 127.333 662.333 127.035 662.333 126.667C662.333 126.298 662.035 126 661.667 126" stroke="white" stroke-width="2"/>
<path d="M669.667 127.333C669.298 127.333 669 127.035 669 126.667C669 126.298 669.298 126 669.667 126" stroke="white" stroke-width="2"/>
<path d="M669.667 127.333C670.035 127.333 670.333 127.035 670.333 126.667C670.333 126.298 670.035 126 669.667 126" stroke="white" stroke-width="2"/>
<path d="M865 249C922.99 249 970 201.99 970 144C970 86.0101 922.99 39 865 39C807.01 39 760 86.0101 760 144C760 201.99 807.01 249 865 249Z" fill="#6696C4" fill-opacity="0.8"/>
<path d="M837 128.011H893" stroke="white" stroke-width="2" stroke-linecap="round" stroke-linejoin="round"/>
<path d="M845 122.011C844.868 122.011 844.738 122.05 844.628 122.124C844.519 122.198 844.433 122.302 844.383 122.425C844.333 122.547 844.32 122.682 844.347 122.811C844.373 122.941 844.438 123.06 844.532 123.153C844.627 123.245 844.746 123.308 844.876 123.332C845.006 123.357 845.141 123.342 845.262 123.29C845.384 123.238 845.487 123.151 845.559 123.04C845.631 122.929 845.669 122.799 845.666 122.667C845.666 122.49 845.596 122.32 845.471 122.195C845.346 122.07 845.177 122 845 122" stroke="white" stroke-width="2" stroke-linecap="round" stroke-linejoin="round"/>
<path d="M850.333 122.011C850.201 122.011 850.072 122.05 849.962 122.124C849.852 122.198 849.767 122.302 849.716 122.425C849.666 122.547 849.654 122.682 849.68 122.811C849.707 122.941 849.772 123.06 849.866 123.153C849.96 123.245 850.08 123.308 850.21 123.332C850.34 123.357 850.474 123.342 850.596 123.29C850.718 123.238 850.821 123.151 850.893 123.04C850.965 122.929 851.002 122.799 851 122.667C851 122.49 850.93 122.32 850.805 122.195C850.68 122.07 850.51 122 850.333 122" stroke="white" stroke-width="2" stroke-linecap="round" stroke-linejoin="round"/>
<path d="M855.667 122.011C855.534 122.011 855.405 122.05 855.295 122.124C855.185 122.198 855.1 122.302 855.05 122.425C855 122.547 854.987 122.682 855.014 122.811C855.04 122.941 855.105 123.06 855.199 123.153C855.293 123.245 855.413 123.308 855.543 123.332C855.673 123.357 855.808 123.342 855.929 123.29C856.051 123.238 856.154 123.151 856.226 123.04C856.298 122.929 856.335 122.799 856.333 122.667C856.333 122.49 856.263 122.32 856.138 122.195C856.013 122.07 855.843 122 855.667 122" stroke="white" stroke-width="2" stroke-linecap="round" stroke-linejoin="round"/>
<path d="M850.333 157.334H842.403C840.981 157.335 839.617 156.776 838.605 155.777C837.594 154.779 837.017 153.421 837 152V122.667C837.016 121.245 837.593 119.888 838.604 118.889C839.616 117.89 840.981 117.331 842.403 117.334H887.736C888.433 117.335 889.123 117.474 889.765 117.743C890.408 118.012 890.991 118.406 891.481 118.902C891.97 119.398 892.356 119.986 892.617 120.632C892.878 121.279 893.008 121.97 893 122.667V152C893.008 152.697 892.878 153.388 892.617 154.035C892.356 154.681 891.97 155.269 891.481 155.765C890.991 156.261 890.408 156.655 889.765 156.924C889.123 157.193 888.433 157.332 887.736 157.334H879.667" stroke="white" stroke-width="2" stroke-linecap="round" stroke-linejoin="round"/>
<path d="M877 150.677L866.333 140.011L855.667 150.677" stroke="white" stroke-width="2" stroke-linecap="round" stroke-linejoin="round"/>
<path d="M866.333 170.677V140.011" stroke="white" stroke-width="2" stroke-linecap="round" stroke-linejoin="round"/>
<path d="M1055 249C1112.99 249 1160 201.99 1160 144C1160 86.0101 1112.99 39 1055 39C997.01 39 950 86.0101 950 144C950 201.99 997.01 249 1055 249Z" fill="#6696C4" fill-opacity="0.9"/>
<path d="M1081.68 119.667H1028.34C1026.87 119.667 1025.68 120.861 1025.68 122.334V159.667C1025.68 161.14 1026.87 162.334 1028.34 162.334H1081.68C1083.15 162.334 1084.34 161.14 1084.34 159.667V122.334C1084.34 120.861 1083.15 119.667 1081.68 119.667Z" stroke="white" stroke-width="2" stroke-linecap="round" stroke-linejoin="round"/>
<path d="M1032.33 143.667L1037.37 138.64C1037.62 138.392 1037.91 138.195 1038.24 138.061C1038.56 137.927 1038.91 137.858 1039.26 137.858C1039.61 137.858 1039.95 137.927 1040.28 138.061C1040.6 138.195 1040.9 138.392 1041.14 138.64L1044.29 141.781C1044.79 142.281 1045.46 142.562 1046.17 142.562C1046.88 142.562 1047.56 142.281 1048.06 141.781L1055.52 134.315C1056.02 133.815 1056.7 133.534 1057.41 133.534C1058.12 133.534 1058.79 133.815 1059.29 134.315L1065.03 140.051C1065.53 140.55 1066.21 140.831 1066.91 140.831C1067.62 140.831 1068.3 140.55 1068.8 140.051L1079 129.84" stroke="white" stroke-width="2" stroke-linecap="round" stroke-linejoin="round"/>
<path d="M1071.01 149H1079.01" stroke="white" stroke-width="2" stroke-linecap="round" stroke-linejoin="round"/>
<path d="M1079.01 154.333H1065.68" stroke="white" stroke-width="2" stroke-linecap="round" stroke-linejoin="round"/>
<path d="M1055.01 114.333V119.667" stroke="white" stroke-width="2" stroke-linecap="round" stroke-linejoin="round"/>
<path d="M1055.01 162.333V169" stroke="white" stroke-width="2" stroke-linecap="round" stroke-linejoin="round"/>
<path d="M1055.01 169L1045.68 175.667" stroke="white" stroke-width="2" stroke-linecap="round" stroke-linejoin="round"/>
<path d="M1055.01 169L1064.34 175.667" stroke="white" stroke-width="2" stroke-linecap="round" stroke-linejoin="round"/>
<path d="M60.6365 290H54.7217V272.545H60.7558C62.4887 272.545 63.9774 272.895 65.2217 273.594C66.4717 274.287 67.4319 275.284 68.1024 276.585C68.7728 277.886 69.1081 279.443 69.1081 281.256C69.1081 283.074 68.77 284.636 68.0939 285.943C67.4234 287.25 66.4546 288.253 65.1876 288.952C63.9262 289.651 62.4092 290 60.6365 290ZM57.8836 287.264H60.4831C61.699 287.264 62.7132 287.043 63.5257 286.599C64.3382 286.151 64.949 285.483 65.3581 284.597C65.7671 283.705 65.9717 282.591 65.9717 281.256C65.9717 279.92 65.7671 278.812 65.3581 277.932C64.949 277.045 64.3439 276.384 63.5427 275.946C62.7473 275.503 61.7586 275.281 60.5768 275.281H57.8836V287.264ZM71.496 290V276.909H74.5812V290H71.496ZM73.0471 275.051C72.5585 275.051 72.138 274.889 71.7857 274.565C71.4335 274.236 71.2573 273.841 71.2573 273.381C71.2573 272.915 71.4335 272.52 71.7857 272.196C72.138 271.866 72.5585 271.702 73.0471 271.702C73.5414 271.702 73.9619 271.866 74.3085 272.196C74.6607 272.52 74.8369 272.915 74.8369 273.381C74.8369 273.841 74.6607 274.236 74.3085 274.565C73.9619 274.889 73.5414 275.051 73.0471 275.051ZM87.6204 280.369L84.8079 280.676C84.7283 280.392 84.5891 280.125 84.3902 279.875C84.1971 279.625 83.9357 279.423 83.6062 279.27C83.2766 279.116 82.8732 279.04 82.3959 279.04C81.7539 279.04 81.2141 279.179 80.7766 279.457C80.3448 279.736 80.1317 280.097 80.1374 280.54C80.1317 280.92 80.2709 281.23 80.555 281.469C80.8448 281.707 81.3221 281.903 81.9868 282.057L84.2198 282.534C85.4584 282.801 86.3789 283.224 86.9812 283.804C87.5891 284.384 87.8959 285.142 87.9016 286.08C87.8959 286.903 87.6544 287.631 87.1772 288.261C86.7056 288.886 86.0493 289.375 85.2084 289.727C84.3675 290.08 83.4016 290.256 82.3107 290.256C80.7084 290.256 79.4187 289.92 78.4414 289.25C77.4641 288.574 76.8817 287.634 76.6942 286.429L79.7027 286.139C79.8391 286.73 80.1289 287.176 80.5721 287.477C81.0152 287.778 81.5919 287.929 82.3022 287.929C83.0351 287.929 83.6232 287.778 84.0664 287.477C84.5152 287.176 84.7397 286.804 84.7397 286.361C84.7397 285.986 84.5948 285.676 84.305 285.432C84.0209 285.187 83.5777 285 82.9755 284.869L80.7425 284.401C79.4868 284.139 78.5579 283.699 77.9556 283.08C77.3533 282.455 77.055 281.665 77.0607 280.71C77.055 279.903 77.2738 279.205 77.7169 278.614C78.1658 278.017 78.788 277.557 79.5834 277.233C80.3846 276.903 81.3079 276.739 82.3533 276.739C83.8874 276.739 85.0948 277.065 85.9755 277.719C86.8618 278.372 87.4101 279.256 87.6204 280.369ZM95.6759 290.256C94.3691 290.256 93.2469 289.969 92.3094 289.395C91.3776 288.821 90.6588 288.028 90.1531 287.017C89.6531 286 89.4031 284.83 89.4031 283.506C89.4031 282.176 89.6588 281.003 90.1702 279.986C90.6816 278.963 91.4031 278.168 92.335 277.599C93.2725 277.026 94.3804 276.739 95.6588 276.739C96.7213 276.739 97.6617 276.935 98.4798 277.327C99.3037 277.713 99.96 278.261 100.448 278.972C100.937 279.676 101.216 280.5 101.284 281.443H98.335C98.2156 280.812 97.9316 280.287 97.4827 279.866C97.0395 279.44 96.4458 279.227 95.7014 279.227C95.0708 279.227 94.5168 279.398 94.0395 279.739C93.5622 280.074 93.1901 280.557 92.923 281.188C92.6617 281.818 92.531 282.574 92.531 283.455C92.531 284.347 92.6617 285.114 92.923 285.756C93.1844 286.392 93.5509 286.884 94.0225 287.23C94.4997 287.571 95.0594 287.741 95.7014 287.741C96.156 287.741 96.5622 287.656 96.9202 287.486C97.2838 287.31 97.5878 287.057 97.8321 286.727C98.0764 286.398 98.2441 285.997 98.335 285.526H101.284C101.21 286.452 100.937 287.273 100.466 287.989C99.9941 288.699 99.352 289.256 98.5395 289.659C97.727 290.057 96.7725 290.256 95.6759 290.256ZM109.047 290.256C107.769 290.256 106.661 289.974 105.723 289.412C104.786 288.849 104.059 288.062 103.542 287.051C103.03 286.04 102.775 284.858 102.775 283.506C102.775 282.153 103.03 280.969 103.542 279.952C104.059 278.935 104.786 278.145 105.723 277.582C106.661 277.02 107.769 276.739 109.047 276.739C110.326 276.739 111.434 277.02 112.371 277.582C113.309 278.145 114.033 278.935 114.544 279.952C115.062 280.969 115.32 282.153 115.32 283.506C115.32 284.858 115.062 286.04 114.544 287.051C114.033 288.062 113.309 288.849 112.371 289.412C111.434 289.974 110.326 290.256 109.047 290.256ZM109.064 287.784C109.758 287.784 110.337 287.594 110.803 287.213C111.269 286.827 111.616 286.31 111.843 285.662C112.076 285.014 112.192 284.293 112.192 283.497C112.192 282.696 112.076 281.972 111.843 281.324C111.616 280.67 111.269 280.151 110.803 279.764C110.337 279.378 109.758 279.185 109.064 279.185C108.354 279.185 107.763 279.378 107.292 279.764C106.826 280.151 106.476 280.67 106.243 281.324C106.016 281.972 105.902 282.696 105.902 283.497C105.902 284.293 106.016 285.014 106.243 285.662C106.476 286.31 106.826 286.827 107.292 287.213C107.763 287.594 108.354 287.784 109.064 287.784ZM128.707 276.909L124.045 290H120.636L115.974 276.909H119.263L122.272 286.634H122.408L125.425 276.909H128.707ZM135.712 290.256C134.399 290.256 133.266 289.983 132.311 289.438C131.362 288.886 130.632 288.108 130.121 287.102C129.609 286.091 129.354 284.901 129.354 283.531C129.354 282.185 129.609 281.003 130.121 279.986C130.638 278.963 131.359 278.168 132.285 277.599C133.212 277.026 134.3 276.739 135.55 276.739C136.357 276.739 137.118 276.869 137.834 277.131C138.555 277.386 139.192 277.784 139.743 278.324C140.3 278.864 140.737 279.551 141.055 280.386C141.374 281.216 141.533 282.205 141.533 283.352V284.298H130.803V282.219H138.575C138.57 281.628 138.442 281.102 138.192 280.642C137.942 280.176 137.592 279.81 137.143 279.543C136.7 279.276 136.183 279.142 135.592 279.142C134.962 279.142 134.408 279.295 133.93 279.602C133.453 279.903 133.081 280.301 132.814 280.795C132.553 281.284 132.419 281.821 132.413 282.406V284.222C132.413 284.983 132.553 285.636 132.831 286.182C133.109 286.722 133.499 287.136 133.999 287.426C134.499 287.71 135.084 287.852 135.754 287.852C136.203 287.852 136.609 287.79 136.973 287.665C137.337 287.534 137.652 287.344 137.919 287.094C138.186 286.844 138.388 286.534 138.524 286.165L141.405 286.489C141.223 287.25 140.876 287.915 140.365 288.483C139.859 289.045 139.212 289.483 138.422 289.795C137.632 290.102 136.729 290.256 135.712 290.256ZM143.663 290V276.909H146.654V279.091H146.791C147.029 278.335 147.438 277.753 148.018 277.344C148.603 276.929 149.271 276.722 150.021 276.722C150.191 276.722 150.381 276.73 150.592 276.747C150.808 276.759 150.987 276.778 151.129 276.807V279.645C150.998 279.599 150.791 279.56 150.506 279.526C150.228 279.486 149.958 279.466 149.697 279.466C149.134 279.466 148.629 279.588 148.18 279.832C147.737 280.071 147.387 280.403 147.131 280.83C146.876 281.256 146.748 281.747 146.748 282.304V290H143.663Z" fill="#1A1A1A"/>
<path d="M266.636 25.0004H260.722V7.5459H266.756C268.489 7.5459 269.977 7.89534 271.222 8.5942C272.472 9.28738 273.432 10.2845 274.102 11.5856C274.773 12.8868 275.108 14.4436 275.108 16.2561C275.108 18.0743 274.77 19.6368 274.094 20.9436C273.423 22.2504 272.455 23.2532 271.188 23.9521C269.926 24.651 268.409 25.0004 266.636 25.0004ZM263.884 22.2646H266.483C267.699 22.2646 268.713 22.043 269.526 21.5998C270.338 21.151 270.949 20.4834 271.358 19.597C271.767 18.7049 271.972 17.5913 271.972 16.2561C271.972 14.9209 271.767 13.8129 271.358 12.9322C270.949 12.0459 270.344 11.3839 269.543 10.9464C268.747 10.5032 267.759 10.2816 266.577 10.2816H263.884V22.2646ZM283.291 25.2561C281.979 25.2561 280.845 24.9834 279.891 24.4379C278.942 23.8868 278.212 23.1084 277.7 22.1027C277.189 21.0913 276.933 19.901 276.933 18.5316C276.933 17.1851 277.189 16.0032 277.7 14.9862C278.217 13.9635 278.939 13.168 279.865 12.5998C280.791 12.026 281.879 11.739 283.129 11.739C283.936 11.739 284.698 11.8697 285.413 12.1311C286.135 12.3868 286.771 12.7845 287.323 13.3243C287.879 13.864 288.317 14.5515 288.635 15.3868C288.953 16.2163 289.112 17.2049 289.112 18.3527V19.2987H278.382V17.2192H286.155C286.149 16.6282 286.021 16.1027 285.771 15.6424C285.521 15.1765 285.172 14.8101 284.723 14.543C284.28 14.276 283.763 14.1424 283.172 14.1424C282.541 14.1424 281.987 14.2959 281.51 14.6027C281.033 14.9038 280.661 15.3015 280.394 15.7959C280.132 16.2845 279.999 16.8214 279.993 17.4066V19.222C279.993 19.9834 280.132 20.6368 280.411 21.1822C280.689 21.722 281.078 22.1368 281.578 22.4265C282.078 22.7106 282.663 22.8527 283.334 22.8527C283.783 22.8527 284.189 22.7902 284.553 22.6652C284.916 22.5345 285.232 22.3442 285.499 22.0942C285.766 21.8442 285.967 21.5345 286.104 21.1652L288.984 21.489C288.803 22.2504 288.456 22.9152 287.945 23.4834C287.439 24.0459 286.791 24.4834 286.002 24.7959C285.212 25.1027 284.308 25.2561 283.291 25.2561ZM297.873 11.9095V14.2959H290.134V11.9095H297.873ZM292.069 25.0004V10.6737C292.069 9.79306 292.251 9.06011 292.615 8.47488C292.984 7.88965 293.478 7.45215 294.098 7.16238C294.717 6.87261 295.404 6.72772 296.16 6.72772C296.694 6.72772 297.169 6.77034 297.583 6.85556C297.998 6.94079 298.305 7.0175 298.504 7.08568L297.89 9.47204C297.759 9.43227 297.595 9.39249 297.396 9.35272C297.197 9.30727 296.975 9.28454 296.731 9.28454C296.157 9.28454 295.751 9.42375 295.512 9.70215C295.279 9.97488 295.163 10.3669 295.163 10.8782V25.0004H292.069ZM299.809 25.0004V11.9095H302.895V25.0004H299.809ZM301.36 10.0515C300.872 10.0515 300.451 9.88965 300.099 9.56579C299.747 9.23624 299.571 8.84136 299.571 8.38113C299.571 7.91522 299.747 7.52034 300.099 7.19647C300.451 6.86693 300.872 6.70215 301.36 6.70215C301.855 6.70215 302.275 6.86693 302.622 7.19647C302.974 7.52034 303.15 7.91522 303.15 8.38113C303.15 8.84136 302.974 9.23624 302.622 9.56579C302.275 9.88965 301.855 10.0515 301.36 10.0515ZM308.672 17.3299V25.0004H305.587V11.9095H308.536V14.1339H308.689C308.991 13.401 309.471 12.8186 310.13 12.3868C310.794 11.9549 311.616 11.739 312.593 11.739C313.496 11.739 314.283 11.9322 314.954 12.3186C315.63 12.7049 316.152 13.2646 316.522 13.9976C316.897 14.7305 317.081 15.6197 317.076 16.6652V25.0004H313.991V17.1424C313.991 16.2674 313.763 15.5828 313.309 15.0885C312.86 14.5941 312.238 14.347 311.442 14.347C310.902 14.347 310.422 14.4663 310.002 14.7049C309.587 14.9379 309.26 15.276 309.022 15.7192C308.789 16.1623 308.672 16.6993 308.672 17.3299ZM325.528 25.2561C324.215 25.2561 323.082 24.9834 322.127 24.4379C321.178 23.8868 320.448 23.1084 319.937 22.1027C319.425 21.0913 319.17 19.901 319.17 18.5316C319.17 17.1851 319.425 16.0032 319.937 14.9862C320.454 13.9635 321.175 13.168 322.101 12.5998C323.028 12.026 324.116 11.739 325.366 11.739C326.172 11.739 326.934 11.8697 327.65 12.1311C328.371 12.3868 329.008 12.7845 329.559 13.3243C330.116 13.864 330.553 14.5515 330.871 15.3868C331.189 16.2163 331.349 17.2049 331.349 18.3527V19.2987H320.618V17.2192H328.391C328.386 16.6282 328.258 16.1027 328.008 15.6424C327.758 15.1765 327.408 14.8101 326.959 14.543C326.516 14.276 325.999 14.1424 325.408 14.1424C324.778 14.1424 324.224 14.2959 323.746 14.6027C323.269 14.9038 322.897 15.3015 322.63 15.7959C322.368 16.2845 322.235 16.8214 322.229 17.4066V19.222C322.229 19.9834 322.368 20.6368 322.647 21.1822C322.925 21.722 323.314 22.1368 323.814 22.4265C324.314 22.7106 324.9 22.8527 325.57 22.8527C326.019 22.8527 326.425 22.7902 326.789 22.6652C327.153 22.5345 327.468 22.3442 327.735 22.0942C328.002 21.8442 328.204 21.5345 328.34 21.1652L331.221 21.489C331.039 22.2504 330.692 22.9152 330.181 23.4834C329.675 24.0459 329.028 24.4834 328.238 24.7959C327.448 25.1027 326.545 25.2561 325.528 25.2561Z" fill="#1A1A1A"/>
<path d="M453.636 290H447.722V272.545H453.756C455.489 272.545 456.977 272.895 458.222 273.594C459.472 274.287 460.432 275.284 461.102 276.585C461.773 277.886 462.108 279.443 462.108 281.256C462.108 283.074 461.77 284.636 461.094 285.943C460.423 287.25 459.455 288.253 458.188 288.952C456.926 289.651 455.409 290 453.636 290ZM450.884 287.264H453.483C454.699 287.264 455.713 287.043 456.526 286.599C457.338 286.151 457.949 285.483 458.358 284.597C458.767 283.705 458.972 282.591 458.972 281.256C458.972 279.92 458.767 278.812 458.358 277.932C457.949 277.045 457.344 276.384 456.543 275.946C455.747 275.503 454.759 275.281 453.577 275.281H450.884V287.264ZM470.291 290.256C468.979 290.256 467.845 289.983 466.891 289.438C465.942 288.886 465.212 288.108 464.7 287.102C464.189 286.091 463.933 284.901 463.933 283.531C463.933 282.185 464.189 281.003 464.7 279.986C465.217 278.963 465.939 278.168 466.865 277.599C467.791 277.026 468.879 276.739 470.129 276.739C470.936 276.739 471.698 276.869 472.413 277.131C473.135 277.386 473.771 277.784 474.323 278.324C474.879 278.864 475.317 279.551 475.635 280.386C475.953 281.216 476.112 282.205 476.112 283.352V284.298H465.382V282.219H473.155C473.149 281.628 473.021 281.102 472.771 280.642C472.521 280.176 472.172 279.81 471.723 279.543C471.28 279.276 470.763 279.142 470.172 279.142C469.541 279.142 468.987 279.295 468.51 279.602C468.033 279.903 467.661 280.301 467.394 280.795C467.132 281.284 466.999 281.821 466.993 282.406V284.222C466.993 284.983 467.132 285.636 467.411 286.182C467.689 286.722 468.078 287.136 468.578 287.426C469.078 287.71 469.663 287.852 470.334 287.852C470.783 287.852 471.189 287.79 471.553 287.665C471.916 287.534 472.232 287.344 472.499 287.094C472.766 286.844 472.967 286.534 473.104 286.165L475.984 286.489C475.803 287.25 475.456 287.915 474.945 288.483C474.439 289.045 473.791 289.483 473.002 289.795C472.212 290.102 471.308 290.256 470.291 290.256ZM488.589 280.369L485.777 280.676C485.697 280.392 485.558 280.125 485.359 279.875C485.166 279.625 484.904 279.423 484.575 279.27C484.245 279.116 483.842 279.04 483.365 279.04C482.723 279.04 482.183 279.179 481.745 279.457C481.313 279.736 481.1 280.097 481.106 280.54C481.1 280.92 481.24 281.23 481.524 281.469C481.813 281.707 482.291 281.903 482.955 282.057L485.188 282.534C486.427 282.801 487.348 283.224 487.95 283.804C488.558 284.384 488.865 285.142 488.87 286.08C488.865 286.903 488.623 287.631 488.146 288.261C487.674 288.886 487.018 289.375 486.177 289.727C485.336 290.08 484.37 290.256 483.279 290.256C481.677 290.256 480.387 289.92 479.41 289.25C478.433 288.574 477.85 287.634 477.663 286.429L480.671 286.139C480.808 286.73 481.098 287.176 481.541 287.477C481.984 287.778 482.561 287.929 483.271 287.929C484.004 287.929 484.592 287.778 485.035 287.477C485.484 287.176 485.708 286.804 485.708 286.361C485.708 285.986 485.563 285.676 485.274 285.432C484.99 285.187 484.546 285 483.944 284.869L481.711 284.401C480.455 284.139 479.527 283.699 478.924 283.08C478.322 282.455 478.024 281.665 478.029 280.71C478.024 279.903 478.242 279.205 478.686 278.614C479.134 278.017 479.757 277.557 480.552 277.233C481.353 276.903 482.277 276.739 483.322 276.739C484.856 276.739 486.063 277.065 486.944 277.719C487.83 278.372 488.379 279.256 488.589 280.369ZM490.934 290V276.909H494.02V290H490.934ZM492.485 275.051C491.997 275.051 491.576 274.889 491.224 274.565C490.872 274.236 490.696 273.841 490.696 273.381C490.696 272.915 490.872 272.52 491.224 272.196C491.576 271.866 491.997 271.702 492.485 271.702C492.98 271.702 493.4 271.866 493.747 272.196C494.099 272.52 494.275 272.915 494.275 273.381C494.275 273.841 494.099 274.236 493.747 274.565C493.4 274.889 492.98 275.051 492.485 275.051ZM502.405 295.182C501.297 295.182 500.346 295.031 499.55 294.73C498.755 294.435 498.116 294.037 497.633 293.537C497.15 293.037 496.814 292.483 496.627 291.875L499.405 291.202C499.53 291.457 499.712 291.71 499.951 291.96C500.189 292.216 500.51 292.426 500.914 292.591C501.323 292.761 501.837 292.847 502.456 292.847C503.331 292.847 504.056 292.634 504.63 292.207C505.204 291.787 505.491 291.094 505.491 290.128V287.648H505.337C505.178 287.966 504.945 288.293 504.638 288.628C504.337 288.963 503.937 289.244 503.437 289.472C502.942 289.699 502.32 289.812 501.57 289.812C500.564 289.812 499.652 289.577 498.834 289.105C498.022 288.628 497.374 287.918 496.891 286.974C496.414 286.026 496.175 284.838 496.175 283.412C496.175 281.974 496.414 280.761 496.891 279.773C497.374 278.778 498.025 278.026 498.843 277.514C499.661 276.997 500.573 276.739 501.579 276.739C502.346 276.739 502.976 276.869 503.471 277.131C503.971 277.386 504.368 277.696 504.664 278.06C504.959 278.418 505.184 278.756 505.337 279.074H505.508V276.909H508.55V290.213C508.55 291.332 508.283 292.259 507.749 292.991C507.215 293.724 506.485 294.273 505.559 294.636C504.633 295 503.581 295.182 502.405 295.182ZM502.431 287.392C503.084 287.392 503.641 287.233 504.101 286.915C504.562 286.597 504.911 286.139 505.15 285.543C505.388 284.946 505.508 284.23 505.508 283.395C505.508 282.571 505.388 281.849 505.15 281.23C504.917 280.611 504.57 280.131 504.11 279.79C503.655 279.443 503.096 279.27 502.431 279.27C501.743 279.27 501.169 279.449 500.709 279.807C500.249 280.165 499.902 280.656 499.669 281.281C499.437 281.901 499.32 282.605 499.32 283.395C499.32 284.196 499.437 284.898 499.669 285.5C499.908 286.097 500.258 286.562 500.718 286.898C501.184 287.227 501.755 287.392 502.431 287.392ZM514.317 282.33V290H511.232V276.909H514.181V279.134H514.334C514.636 278.401 515.116 277.818 515.775 277.386C516.439 276.955 517.261 276.739 518.238 276.739C519.141 276.739 519.928 276.932 520.599 277.318C521.275 277.705 521.797 278.264 522.167 278.997C522.542 279.73 522.726 280.619 522.721 281.665V290H519.636V282.142C519.636 281.267 519.408 280.582 518.954 280.088C518.505 279.594 517.883 279.347 517.087 279.347C516.547 279.347 516.067 279.466 515.647 279.705C515.232 279.937 514.905 280.276 514.667 280.719C514.434 281.162 514.317 281.699 514.317 282.33Z" fill="#1A1A1A"/>
<path d="M636.636 25.0004H630.722V7.5459H636.756C638.489 7.5459 639.977 7.89534 641.222 8.5942C642.472 9.28738 643.432 10.2845 644.102 11.5856C644.773 12.8868 645.108 14.4436 645.108 16.2561C645.108 18.0743 644.77 19.6368 644.094 20.9436C643.423 22.2504 642.455 23.2532 641.188 23.9521C639.926 24.651 638.409 25.0004 636.636 25.0004ZM633.884 22.2646H636.483C637.699 22.2646 638.713 22.043 639.526 21.5998C640.338 21.151 640.949 20.4834 641.358 19.597C641.767 18.7049 641.972 17.5913 641.972 16.2561C641.972 14.9209 641.767 13.8129 641.358 12.9322C640.949 12.0459 640.344 11.3839 639.543 10.9464C638.747 10.5032 637.759 10.2816 636.577 10.2816H633.884V22.2646ZM653.291 25.2561C651.979 25.2561 650.845 24.9834 649.891 24.4379C648.942 23.8868 648.212 23.1084 647.7 22.1027C647.189 21.0913 646.933 19.901 646.933 18.5316C646.933 17.1851 647.189 16.0032 647.7 14.9862C648.217 13.9635 648.939 13.168 649.865 12.5998C650.791 12.026 651.879 11.739 653.129 11.739C653.936 11.739 654.698 11.8697 655.413 12.1311C656.135 12.3868 656.771 12.7845 657.323 13.3243C657.879 13.864 658.317 14.5515 658.635 15.3868C658.953 16.2163 659.112 17.2049 659.112 18.3527V19.2987H648.382V17.2192H656.155C656.149 16.6282 656.021 16.1027 655.771 15.6424C655.521 15.1765 655.172 14.8101 654.723 14.543C654.28 14.276 653.763 14.1424 653.172 14.1424C652.541 14.1424 651.987 14.2959 651.51 14.6027C651.033 14.9038 650.661 15.3015 650.394 15.7959C650.132 16.2845 649.999 16.8214 649.993 17.4066V19.222C649.993 19.9834 650.132 20.6368 650.411 21.1822C650.689 21.722 651.078 22.1368 651.578 22.4265C652.078 22.7106 652.663 22.8527 653.334 22.8527C653.783 22.8527 654.189 22.7902 654.553 22.6652C654.916 22.5345 655.232 22.3442 655.499 22.0942C655.766 21.8442 655.967 21.5345 656.104 21.1652L658.984 21.489C658.803 22.2504 658.456 22.9152 657.945 23.4834C657.439 24.0459 656.791 24.4834 656.002 24.7959C655.212 25.1027 654.308 25.2561 653.291 25.2561ZM672.561 11.9095L667.899 25.0004H664.49L659.828 11.9095H663.117L666.126 21.6339H666.262L669.279 11.9095H672.561ZM679.566 25.2561C678.253 25.2561 677.12 24.9834 676.165 24.4379C675.216 23.8868 674.486 23.1084 673.975 22.1027C673.463 21.0913 673.208 19.901 673.208 18.5316C673.208 17.1851 673.463 16.0032 673.975 14.9862C674.492 13.9635 675.213 13.168 676.14 12.5998C677.066 12.026 678.154 11.739 679.404 11.739C680.211 11.739 680.972 11.8697 681.688 12.1311C682.409 12.3868 683.046 12.7845 683.597 13.3243C684.154 13.864 684.591 14.5515 684.909 15.3868C685.228 16.2163 685.387 17.2049 685.387 18.3527V19.2987H674.657V17.2192H682.429C682.424 16.6282 682.296 16.1027 682.046 15.6424C681.796 15.1765 681.446 14.8101 680.998 14.543C680.554 14.276 680.037 14.1424 679.446 14.1424C678.816 14.1424 678.262 14.2959 677.784 14.6027C677.307 14.9038 676.935 15.3015 676.668 15.7959C676.407 16.2845 676.273 16.8214 676.267 17.4066V19.222C676.267 19.9834 676.407 20.6368 676.685 21.1822C676.963 21.722 677.353 22.1368 677.853 22.4265C678.353 22.7106 678.938 22.8527 679.608 22.8527C680.057 22.8527 680.463 22.7902 680.827 22.6652C681.191 22.5345 681.506 22.3442 681.773 22.0942C682.04 21.8442 682.242 21.5345 682.378 21.1652L685.259 21.489C685.077 22.2504 684.73 22.9152 684.219 23.4834C683.713 24.0459 683.066 24.4834 682.276 24.7959C681.486 25.1027 680.583 25.2561 679.566 25.2561ZM690.602 7.5459V25.0004H687.517V7.5459H690.602ZM699.005 25.2561C697.726 25.2561 696.618 24.9748 695.681 24.4123C694.743 23.8498 694.016 23.0629 693.499 22.0515C692.988 21.0402 692.732 19.8584 692.732 18.5061C692.732 17.1538 692.988 15.9691 693.499 14.9521C694.016 13.9351 694.743 13.1453 695.681 12.5828C696.618 12.0203 697.726 11.739 699.005 11.739C700.283 11.739 701.391 12.0203 702.329 12.5828C703.266 13.1453 703.991 13.9351 704.502 14.9521C705.019 15.9691 705.278 17.1538 705.278 18.5061C705.278 19.8584 705.019 21.0402 704.502 22.0515C703.991 23.0629 703.266 23.8498 702.329 24.4123C701.391 24.9748 700.283 25.2561 699.005 25.2561ZM699.022 22.7845C699.715 22.7845 700.295 22.5941 700.761 22.2135C701.226 21.8271 701.573 21.3101 701.8 20.6623C702.033 20.0146 702.15 19.293 702.15 18.4976C702.15 17.6964 702.033 16.972 701.8 16.3243C701.573 15.6709 701.226 15.151 700.761 14.7646C700.295 14.3782 699.715 14.1851 699.022 14.1851C698.312 14.1851 697.721 14.3782 697.249 14.7646C696.783 15.151 696.434 15.6709 696.201 16.3243C695.974 16.972 695.86 17.6964 695.86 18.4976C695.86 19.293 695.974 20.0146 696.201 20.6623C696.434 21.3101 696.783 21.8271 697.249 22.2135C697.721 22.5941 698.312 22.7845 699.022 22.7845ZM707.416 29.9095V11.9095H710.45V14.0743H710.629C710.788 13.7561 711.013 13.418 711.303 13.0601C711.592 12.6964 711.984 12.3868 712.479 12.1311C712.973 11.8697 713.604 11.739 714.371 11.739C715.382 11.739 716.294 11.9976 717.107 12.5146C717.925 13.026 718.572 13.7845 719.05 14.7902C719.533 15.7902 719.774 17.0174 719.774 18.472C719.774 19.9095 719.538 21.1311 719.067 22.1368C718.595 23.1424 717.953 23.9095 717.141 24.4379C716.328 24.9663 715.408 25.2305 714.379 25.2305C713.629 25.2305 713.007 25.1055 712.513 24.8555C712.018 24.6055 711.621 24.3044 711.32 23.9521C711.024 23.5941 710.794 23.2561 710.629 22.9379H710.501V29.9095H707.416ZM710.442 18.4549C710.442 19.3015 710.561 20.043 710.8 20.6794C711.044 21.3157 711.393 21.8129 711.848 22.1709C712.308 22.5231 712.865 22.6993 713.518 22.6993C714.2 22.6993 714.771 22.5174 715.232 22.1538C715.692 21.7845 716.038 21.2816 716.271 20.6453C716.51 20.0032 716.629 19.2731 716.629 18.4549C716.629 17.6424 716.513 16.9209 716.28 16.2902C716.047 15.6595 715.7 15.1652 715.24 14.8072C714.78 14.4493 714.206 14.2703 713.518 14.2703C712.859 14.2703 712.3 14.4436 711.839 14.7902C711.379 15.1368 711.03 15.6226 710.791 16.2476C710.558 16.8726 710.442 17.6084 710.442 18.4549Z" fill="#1A1A1A"/>
<path d="M833.636 290H827.722V272.545H833.756C835.489 272.545 836.977 272.895 838.222 273.594C839.472 274.287 840.432 275.284 841.102 276.585C841.773 277.886 842.108 279.443 842.108 281.256C842.108 283.074 841.77 284.636 841.094 285.943C840.423 287.25 839.455 288.253 838.188 288.952C836.926 289.651 835.409 290 833.636 290ZM830.884 287.264H833.483C834.699 287.264 835.713 287.043 836.526 286.599C837.338 286.151 837.949 285.483 838.358 284.597C838.767 283.705 838.972 282.591 838.972 281.256C838.972 279.92 838.767 278.812 838.358 277.932C837.949 277.045 837.344 276.384 836.543 275.946C835.747 275.503 834.759 275.281 833.577 275.281H830.884V287.264ZM850.291 290.256C848.979 290.256 847.845 289.983 846.891 289.438C845.942 288.886 845.212 288.108 844.7 287.102C844.189 286.091 843.933 284.901 843.933 283.531C843.933 282.185 844.189 281.003 844.7 279.986C845.217 278.963 845.939 278.168 846.865 277.599C847.791 277.026 848.879 276.739 850.129 276.739C850.936 276.739 851.698 276.869 852.413 277.131C853.135 277.386 853.771 277.784 854.323 278.324C854.879 278.864 855.317 279.551 855.635 280.386C855.953 281.216 856.112 282.205 856.112 283.352V284.298H845.382V282.219H853.155C853.149 281.628 853.021 281.102 852.771 280.642C852.521 280.176 852.172 279.81 851.723 279.543C851.28 279.276 850.763 279.142 850.172 279.142C849.541 279.142 848.987 279.295 848.51 279.602C848.033 279.903 847.661 280.301 847.394 280.795C847.132 281.284 846.999 281.821 846.993 282.406V284.222C846.993 284.983 847.132 285.636 847.411 286.182C847.689 286.722 848.078 287.136 848.578 287.426C849.078 287.71 849.663 287.852 850.334 287.852C850.783 287.852 851.189 287.79 851.553 287.665C851.916 287.534 852.232 287.344 852.499 287.094C852.766 286.844 852.967 286.534 853.104 286.165L855.984 286.489C855.803 287.25 855.456 287.915 854.945 288.483C854.439 289.045 853.791 289.483 853.002 289.795C852.212 290.102 851.308 290.256 850.291 290.256ZM858.242 294.909V276.909H861.277V279.074H861.455C861.615 278.756 861.839 278.418 862.129 278.06C862.419 277.696 862.811 277.386 863.305 277.131C863.799 276.869 864.43 276.739 865.197 276.739C866.208 276.739 867.12 276.997 867.933 277.514C868.751 278.026 869.399 278.784 869.876 279.79C870.359 280.79 870.6 282.017 870.6 283.472C870.6 284.909 870.365 286.131 869.893 287.136C869.421 288.142 868.779 288.909 867.967 289.438C867.154 289.966 866.234 290.23 865.205 290.23C864.455 290.23 863.833 290.105 863.339 289.855C862.845 289.605 862.447 289.304 862.146 288.952C861.85 288.594 861.62 288.256 861.455 287.938H861.328V294.909H858.242ZM861.268 283.455C861.268 284.301 861.387 285.043 861.626 285.679C861.87 286.315 862.22 286.812 862.674 287.17C863.134 287.523 863.691 287.699 864.345 287.699C865.027 287.699 865.598 287.517 866.058 287.153C866.518 286.784 866.865 286.281 867.098 285.645C867.336 285.003 867.455 284.273 867.455 283.455C867.455 282.642 867.339 281.92 867.106 281.29C866.873 280.659 866.527 280.165 866.066 279.807C865.606 279.449 865.032 279.27 864.345 279.27C863.686 279.27 863.126 279.443 862.666 279.79C862.205 280.136 861.856 280.622 861.617 281.247C861.384 281.872 861.268 282.608 861.268 283.455ZM875.848 272.545V290H872.762V272.545H875.848ZM884.25 290.256C882.972 290.256 881.864 289.974 880.927 289.412C879.989 288.849 879.262 288.062 878.745 287.051C878.233 286.04 877.978 284.858 877.978 283.506C877.978 282.153 878.233 280.969 878.745 279.952C879.262 278.935 879.989 278.145 880.927 277.582C881.864 277.02 882.972 276.739 884.25 276.739C885.529 276.739 886.637 277.02 887.574 277.582C888.512 278.145 889.236 278.935 889.748 279.952C890.265 280.969 890.523 282.153 890.523 283.506C890.523 284.858 890.265 286.04 889.748 287.051C889.236 288.062 888.512 288.849 887.574 289.412C886.637 289.974 885.529 290.256 884.25 290.256ZM884.268 287.784C884.961 287.784 885.54 287.594 886.006 287.213C886.472 286.827 886.819 286.31 887.046 285.662C887.279 285.014 887.395 284.293 887.395 283.497C887.395 282.696 887.279 281.972 887.046 281.324C886.819 280.67 886.472 280.151 886.006 279.764C885.54 279.378 884.961 279.185 884.268 279.185C883.557 279.185 882.966 279.378 882.495 279.764C882.029 280.151 881.679 280.67 881.446 281.324C881.219 281.972 881.106 282.696 881.106 283.497C881.106 284.293 881.219 285.014 881.446 285.662C881.679 286.31 882.029 286.827 882.495 287.213C882.966 287.594 883.557 287.784 884.268 287.784ZM894.134 294.909C893.714 294.909 893.324 294.875 892.966 294.807C892.614 294.744 892.333 294.67 892.123 294.585L892.839 292.182C893.287 292.313 893.688 292.375 894.04 292.369C894.393 292.364 894.702 292.253 894.969 292.037C895.242 291.827 895.472 291.474 895.66 290.98L895.924 290.273L891.177 276.909H894.449L897.466 286.795H897.603L900.628 276.909H903.91L898.668 291.585C898.424 292.278 898.1 292.872 897.697 293.366C897.293 293.866 896.799 294.247 896.214 294.509C895.634 294.776 894.941 294.909 894.134 294.909Z" fill="#1A1A1A"/>
<path d="M1036.64 25.0004H1030.72V7.5459H1036.76C1038.49 7.5459 1039.98 7.89534 1041.22 8.5942C1042.47 9.28738 1043.43 10.2845 1044.1 11.5856C1044.77 12.8868 1045.11 14.4436 1045.11 16.2561C1045.11 18.0743 1044.77 19.6368 1044.09 20.9436C1043.42 22.2504 1042.45 23.2532 1041.19 23.9521C1039.93 24.651 1038.41 25.0004 1036.64 25.0004ZM1033.88 22.2646H1036.48C1037.7 22.2646 1038.71 22.043 1039.53 21.5998C1040.34 21.151 1040.95 20.4834 1041.36 19.597C1041.77 18.7049 1041.97 17.5913 1041.97 16.2561C1041.97 14.9209 1041.77 13.8129 1041.36 12.9322C1040.95 12.0459 1040.34 11.3839 1039.54 10.9464C1038.75 10.5032 1037.76 10.2816 1036.58 10.2816H1033.88V22.2646ZM1047.5 25.0004V11.9095H1050.49V14.0913H1050.62C1050.86 13.3356 1051.27 12.7532 1051.85 12.3442C1052.44 11.9294 1053.1 11.722 1053.85 11.722C1054.02 11.722 1054.21 11.7305 1054.42 11.7476C1054.64 11.7589 1054.82 11.7788 1054.96 11.8072V14.6453C1054.83 14.5998 1054.62 14.5601 1054.34 14.526C1054.06 14.4862 1053.79 14.4663 1053.53 14.4663C1052.97 14.4663 1052.46 14.5885 1052.01 14.8328C1051.57 15.0714 1051.22 15.4038 1050.96 15.8299C1050.71 16.2561 1050.58 16.7476 1050.58 17.3044V25.0004H1047.5ZM1056.53 25.0004V11.9095H1059.62V25.0004H1056.53ZM1058.08 10.0515C1057.59 10.0515 1057.17 9.88965 1056.82 9.56579C1056.47 9.23624 1056.29 8.84136 1056.29 8.38113C1056.29 7.91522 1056.47 7.52034 1056.82 7.19647C1057.17 6.86693 1057.59 6.70215 1058.08 6.70215C1058.58 6.70215 1059 6.86693 1059.34 7.19647C1059.7 7.52034 1059.87 7.91522 1059.87 8.38113C1059.87 8.84136 1059.7 9.23624 1059.34 9.56579C1059 9.88965 1058.58 10.0515 1058.08 10.0515ZM1074 11.9095L1069.34 25.0004H1065.93L1061.27 11.9095H1064.56L1067.57 21.6339H1067.7L1070.72 11.9095H1074ZM1081.01 25.2561C1079.7 25.2561 1078.56 24.9834 1077.61 24.4379C1076.66 23.8868 1075.93 23.1084 1075.42 22.1027C1074.91 21.0913 1074.65 19.901 1074.65 18.5316C1074.65 17.1851 1074.91 16.0032 1075.42 14.9862C1075.93 13.9635 1076.66 13.168 1077.58 12.5998C1078.51 12.026 1079.6 11.739 1080.85 11.739C1081.65 11.739 1082.41 11.8697 1083.13 12.1311C1083.85 12.3868 1084.49 12.7845 1085.04 13.3243C1085.6 13.864 1086.03 14.5515 1086.35 15.3868C1086.67 16.2163 1086.83 17.2049 1086.83 18.3527V19.2987H1076.1V17.2192H1083.87C1083.87 16.6282 1083.74 16.1027 1083.49 15.6424C1083.24 15.1765 1082.89 14.8101 1082.44 14.543C1082 14.276 1081.48 14.1424 1080.89 14.1424C1080.26 14.1424 1079.7 14.2959 1079.23 14.6027C1078.75 14.9038 1078.38 15.3015 1078.11 15.7959C1077.85 16.2845 1077.71 16.8214 1077.71 17.4066V19.222C1077.71 19.9834 1077.85 20.6368 1078.13 21.1822C1078.41 21.722 1078.79 22.1368 1079.29 22.4265C1079.79 22.7106 1080.38 22.8527 1081.05 22.8527C1081.5 22.8527 1081.91 22.7902 1082.27 22.6652C1082.63 22.5345 1082.95 22.3442 1083.21 22.0942C1083.48 21.8442 1083.68 21.5345 1083.82 21.1652L1086.7 21.489C1086.52 22.2504 1086.17 22.9152 1085.66 23.4834C1085.16 24.0459 1084.51 24.4834 1083.72 24.7959C1082.93 25.1027 1082.02 25.2561 1081.01 25.2561Z" fill="#1A1A1A"/>
</svg>
