<svg width="269" height="59" viewBox="0 0 269 59" fill="none" xmlns="http://www.w3.org/2000/svg">
<path d="M13.8423 14.794V0H27.5711V14.794H13.8423Z" fill="url(#paint0_linear_30_15)"/>
<path d="M13.3885 15.1328L0 14.907V57.595C0 58.5888 1.13462 58.9126 1.70192 58.9502C14.1449 58.9879 39.3031 59.0406 40.3923 58.9502C41.4816 58.8599 41.8295 58.0091 41.8673 57.595V44.2691L27.5712 43.9303V29.3622L13.3885 29.0234V15.1328Z" fill="url(#paint1_linear_30_15)"/>
<path d="M28.0249 29.3622V15.1328H41.8672L41.9807 29.588L28.0249 29.3622Z" fill="#1684E0"/>
<path d="M42.0942 43.8174V29.814H53.4404V43.8174H42.0942Z" fill="#1684E0"/>
<path d="M38.0093 8.01812V0H45.9516V8.01812H38.0093Z" fill="#1684E0"/>
<path d="M49.2422 19.7629V10.0508H58.9999V19.7629H49.2422Z" fill="#1684E0"/>
<path d="M77.958 40.36C76.038 40.36 74.586 39.82 73.602 38.74C72.618 37.636 72.126 36.064 72.126 34.024V32.584H75.87V34.312C75.87 35.944 76.554 36.76 77.922 36.76C78.594 36.76 79.098 36.568 79.434 36.184C79.794 35.776 79.974 35.128 79.974 34.24C79.974 33.184 79.734 32.26 79.254 31.468C78.774 30.652 77.886 29.68 76.59 28.552C74.958 27.112 73.818 25.816 73.17 24.664C72.522 23.488 72.198 22.168 72.198 20.704C72.198 18.712 72.702 17.176 73.71 16.096C74.718 14.992 76.182 14.44 78.102 14.44C79.998 14.44 81.426 14.992 82.386 16.096C83.37 17.176 83.862 18.736 83.862 20.776V21.82H80.118V20.524C80.118 19.66 79.95 19.036 79.614 18.652C79.278 18.244 78.786 18.04 78.138 18.04C76.818 18.04 76.158 18.844 76.158 20.452C76.158 21.364 76.398 22.216 76.878 23.008C77.382 23.8 78.282 24.76 79.578 25.888C81.234 27.328 82.374 28.636 82.998 29.812C83.622 30.988 83.934 32.368 83.934 33.952C83.934 36.016 83.418 37.6 82.386 38.704C81.378 39.808 79.902 40.36 77.958 40.36ZM91.9285 40.36C89.9845 40.36 88.4965 39.808 87.4645 38.704C86.4325 37.6 85.9165 36.04 85.9165 34.024V20.776C85.9165 18.76 86.4325 17.2 87.4645 16.096C88.4965 14.992 89.9845 14.44 91.9285 14.44C93.8725 14.44 95.3605 14.992 96.3925 16.096C97.4245 17.2 97.9405 18.76 97.9405 20.776V34.024C97.9405 36.04 97.4245 37.6 96.3925 38.704C95.3605 39.808 93.8725 40.36 91.9285 40.36ZM91.9285 36.76C93.2965 36.76 93.9805 35.932 93.9805 34.276V20.524C93.9805 18.868 93.2965 18.04 91.9285 18.04C90.5605 18.04 89.8765 18.868 89.8765 20.524V34.276C89.8765 35.932 90.5605 36.76 91.9285 36.76ZM100.619 14.8H111.095V18.4H104.579V25.42H109.691V29.02H104.579V40H100.619V14.8ZM116.441 18.4H112.301V14.8H124.541V18.4H120.401V40H116.441V18.4ZM126.458 14.8H132.29C134.258 14.8 135.734 15.328 136.718 16.384C137.702 17.44 138.194 18.988 138.194 21.028V23.512C138.194 25.552 137.702 27.1 136.718 28.156C135.734 29.212 134.258 29.74 132.29 29.74H130.418V40H126.458V14.8ZM132.29 26.14C132.938 26.14 133.418 25.96 133.73 25.6C134.066 25.24 134.234 24.628 134.234 23.764V20.776C134.234 19.912 134.066 19.3 133.73 18.94C133.418 18.58 132.938 18.4 132.29 18.4H130.418V26.14H132.29ZM140.345 14.8H144.305V40H140.345V14.8ZM150.763 27.112L146.407 14.8H150.583L153.247 22.936H153.319L156.055 14.8H159.799L155.443 27.112L160.015 40H155.839L152.959 31.216H152.887L149.935 40H146.191L150.763 27.112ZM161.896 14.8H172.696V18.4H165.856V25.06H171.292V28.66H165.856V36.4H172.696V40H161.896V14.8ZM174.974 14.8H178.934V36.4H185.45V40H174.974V14.8ZM192.179 14.8H195.995L197.759 34.168H197.831L199.703 14.8H204.023L205.895 34.168H205.967L207.731 14.8H211.151L208.595 40H203.663L201.863 23.008H201.791L199.991 40H194.735L192.179 14.8ZM218.878 40.36C216.934 40.36 215.446 39.808 214.414 38.704C213.382 37.6 212.866 36.04 212.866 34.024V20.776C212.866 18.76 213.382 17.2 214.414 16.096C215.446 14.992 216.934 14.44 218.878 14.44C220.822 14.44 222.31 14.992 223.342 16.096C224.374 17.2 224.89 18.76 224.89 20.776V34.024C224.89 36.04 224.374 37.6 223.342 38.704C222.31 39.808 220.822 40.36 218.878 40.36ZM218.878 36.76C220.246 36.76 220.93 35.932 220.93 34.276V20.524C220.93 18.868 220.246 18.04 218.878 18.04C217.51 18.04 216.826 18.868 216.826 20.524V34.276C216.826 35.932 217.51 36.76 218.878 36.76ZM227.568 14.8H233.436C235.476 14.8 236.964 15.28 237.9 16.24C238.836 17.176 239.304 18.628 239.304 20.596V22.144C239.304 24.76 238.44 26.416 236.712 27.112V27.184C237.672 27.472 238.344 28.06 238.728 28.948C239.136 29.836 239.34 31.024 239.34 32.512V36.94C239.34 37.66 239.364 38.248 239.412 38.704C239.46 39.136 239.58 39.568 239.772 40H235.74C235.596 39.592 235.5 39.208 235.452 38.848C235.404 38.488 235.38 37.84 235.38 36.904V32.296C235.38 31.144 235.188 30.34 234.804 29.884C234.444 29.428 233.808 29.2 232.896 29.2H231.528V40H227.568V14.8ZM232.968 25.6C233.76 25.6 234.348 25.396 234.732 24.988C235.14 24.58 235.344 23.896 235.344 22.936V20.992C235.344 20.08 235.176 19.42 234.84 19.012C234.528 18.604 234.024 18.4 233.328 18.4H231.528V25.6H232.968ZM242.087 14.8H246.047V25.42L251.087 14.8H255.047L250.331 24.052L255.119 40H250.979L247.631 28.768L246.047 31.972V40H242.087V14.8ZM261.895 40.36C259.975 40.36 258.523 39.82 257.539 38.74C256.555 37.636 256.063 36.064 256.063 34.024V32.584H259.807V34.312C259.807 35.944 260.491 36.76 261.859 36.76C262.531 36.76 263.035 36.568 263.371 36.184C263.731 35.776 263.911 35.128 263.911 34.24C263.911 33.184 263.671 32.26 263.191 31.468C262.711 30.652 261.823 29.68 260.527 28.552C258.895 27.112 257.755 25.816 257.107 24.664C256.459 23.488 256.135 22.168 256.135 20.704C256.135 18.712 256.639 17.176 257.647 16.096C258.655 14.992 260.119 14.44 262.039 14.44C263.935 14.44 265.363 14.992 266.323 16.096C267.307 17.176 267.799 18.736 267.799 20.776V21.82H264.055V20.524C264.055 19.66 263.887 19.036 263.551 18.652C263.215 18.244 262.723 18.04 262.075 18.04C260.755 18.04 260.095 18.844 260.095 20.452C260.095 21.364 260.335 22.216 260.815 23.008C261.319 23.8 262.219 24.76 263.515 25.888C265.171 27.328 266.311 28.636 266.935 29.812C267.559 30.988 267.871 32.368 267.871 33.952C267.871 36.016 267.355 37.6 266.323 38.704C265.315 39.808 263.839 40.36 261.895 40.36Z" fill="#000A0F"/>
<defs>
<linearGradient id="paint0_linear_30_15" x1="13.8423" y1="14.794" x2="27.6157" y2="0.04854" gradientUnits="userSpaceOnUse">
<stop stop-color="#1684E0"/>
<stop offset="1" stop-color="#1684E0"/>
</linearGradient>
<linearGradient id="paint1_linear_30_15" x1="27.5712" y1="29.3622" x2="0.133828" y2="57.9493" gradientUnits="userSpaceOnUse">
<stop stop-color="#1682DC"/>
<stop offset="1" stop-color="#0C4676"/>
</linearGradient>
</defs>
</svg>